<?xml version="1.0" encoding="utf-8"?>
<!-- Generator: Adobe Illustrator 24.0.1, SVG Export Plug-In . SVG Version: 6.00 Build 0)  -->
<svg version="1.0" id="Camada_1" xmlns="http://www.w3.org/2000/svg" xmlns:xlink="http://www.w3.org/1999/xlink" x="0px" y="0px"
	 viewBox="0 0 100 100" enable-background="new 0 0 100 100" xml:space="preserve">
<g>
	<path fill="#7BB190" d="M10.8,3.6c4.7,2,7.4,6.3,10.8,9.8c9.1,9.4,18,18.9,27,28.4c5,5.3,4.4,9.4-2.1,12.8
		c-7.9,4.2-15.8,8.4-23.7,12.6c-4.3,2.3-7.6,1.5-9.6-2.2c-2-3.7-0.8-6.8,3.6-9.2c4.8-2.6,9.5-5.1,14.3-7.7C35,46,35,46,32.4,42.6
		C25,32.7,17.5,22.9,10.1,13c-3.2-4.3-3.2-6.4,0-9.4C10.3,3.6,10.5,3.6,10.8,3.6z"/>
	<path fill="#7BB190" d="M71,89.7c0.1,3.2-1.8,5-4.2,6.1c-2.3,1-4.6,0.7-6.5-1.3c-7-7.3-14.1-14.5-21.1-21.9
		c-3.4-3.6-2.4-8.1,2.5-10.8c4.9-2.8,9.9-5.4,14.9-8.1c9.3-5.1,18.6-10.2,27.9-15.2c2.4-1.3,5.3-3.1,7.2,0c1.9,3.1-0.8,5.3-3.1,6.9
		C78,53,67.4,60.5,56.8,67.8c-2.1,1.4-2.4,2.3-0.5,4.2c4.1,3.9,7.9,8.1,11.9,12.1C69.7,85.7,71.2,87.4,71,89.7z"/>
</g>
</svg>
